<?xml version="1.0" encoding="UTF-8"?>
<svg width="43px" height="47px" viewBox="0 0 43 47" version="1.1" xmlns="http://www.w3.org/2000/svg" xmlns:xlink="http://www.w3.org/1999/xlink">
    <!-- Generator: sketchtool 51.2 (57519) - http://www.bohemiancoding.com/sketch -->
    <title>3A4DA974-8DB0-412A-BC05-80F12CD2873E</title>
    <desc>Created with sketchtool.</desc>
    <defs>
        <polygon id="path-1" points="0 0 43 0 43 47 0 47"></polygon>
    </defs>
    <g id="Symbols" stroke="none" stroke-width="1" fill="none" fill-rule="evenodd">
        <g id="MENU-COLLAPSED" transform="translate(-122.000000, -23.000000)">
            <g id="Group-3">
                <g transform="translate(122.000000, 23.000000)">
                    <mask id="mask-2" fill="white">
                        <use xlink:href="#path-1"></use>
                    </mask>
                    <g id="Clip-2"></g>
                    <path d="M32.0141459,1.3030129 C30.157332,0.391419218 27.2830825,0 24.511144,0 C11.9562464,0 0,7.03998343 0,18.895773 C0,23.0839995 1.3370343,27.5613936 3.67036763,31.5729293 C6.30866025,36.108566 9.96743153,40.2554829 14.334238,43.2027019 C17.6484908,45.4395584 21.4870466,47 25.4525866,47 C28.7553253,47 30.9729419,46.0994495 31.7411794,45.4699067 C31.4089975,45.5229139 30.6099186,45.6392354 29.6237355,45.6392354 C19.1898182,45.6392354 12.0890698,36.4009238 9.42947611,29.6898634 C8.40488527,27.1044516 7.64248705,23.9965748 7.64248705,20.911766 C7.64248705,8.28958008 19.0039477,1.35871958 30.1008307,1.35871958 C30.7224278,1.35871958 31.347726,1.3786791 31.9755736,1.42211559 C32.0243441,1.42546944 32.0551855,1.39544837 32.0551032,1.36231884 C32.0551032,1.34121411 32.0425199,1.31888235 32.0141459,1.3030129 M33.9425117,20.0571878 C28.4602352,20.0571878 23.897689,24.1178861 23.897689,29.5266698 C23.897689,34.5410895 28.0250021,39.2973442 34.0489349,39.2973442 C35.4410725,39.2973442 36.8281109,38.9887897 38.0998437,38.415608 C38.3179538,38.3173647 38.6038326,38.2241112 38.7909368,38.0741694 C38.944979,37.9507313 39.0176001,37.733876 39.1217205,37.5604573 C40.7288428,34.8817919 42.527346,28.7485759 42.7869891,25.3120215 C42.8137182,24.9597033 42.7149437,24.8319297 42.5040711,24.5480791 C41.0809277,22.6316383 38.3112098,20.0571878 33.9425117,20.0571878 M43,20.4826364 C43,20.9461225 42.9898018,21.9456526 42.9782054,22.4012858 C40.9360145,18.825751 36.965211,16.7703298 32.8566494,16.7703298 C26.861255,16.7703298 21.3817748,21.997351 21.3817748,28.9093972 C21.3817748,35.705122 26.8802533,40.6096007 33.0477835,40.6096007 C34.7361625,40.6096007 36.4238013,40.2405132 37.9683362,39.4967758 C37.3053705,40.5044042 36.563122,41.4623792 35.733613,42.3402708 C35.3621186,42.733326 34.9763138,43.2290419 34.4621268,43.4170213 C33.8766346,43.6312589 32.6480796,44.1192036 30.4590016,44.1192036 C23.1301916,44.1192036 18.1442553,38.715737 15.8062341,35.240327 C13.4749568,31.7748149 11.4614689,27.1301372 11.4614689,22.1608718 C11.4614689,12.2514624 19.746114,7.14444369 28.8409409,7.14444369 C38.7395345,7.14444369 43,14.9730734 43,20.4826364" id="Fill-1" fill="#000000" mask="url(#mask-2)"></path>
                </g>
            </g>
        </g>
    </g>
</svg>