<svg width="52" height="64" xmlns="http://www.w3.org/2000/svg" xmlns:xlink="http://www.w3.org/1999/xlink"><defs><path id="a" d="M0 0h50.6125623v64H0z"/></defs><g fill="none" fill-rule="evenodd"><path d="m21.407362 19.0500026.6141335 1.2555704c1.5262968-.5875993 3.145848-.8289072 4.7040628-.8289072 2.3207864 0 4.2343295.5633723 5.8002354 1.4759201.0613364.0357636.1197887.0749882.1770873.1169046l1.3926641 1.0207999c.0626824.0459543.1238265.0949849.1815097.1470921 2.1404303 1.9360396 3.3804262 4.6025404 3.9664873 7.0431154h1.5966702V19.2163224h-1.5966702c-.3422535.5206868-.7981429 1.8222115-1.8247111 1.8222115-.2068903 0-.4643495-.0853711-.7731468-.2232339l-.0015382.003461-.2391929-.1155587c-.024996-.0121134-.0490307-.0234578-.0746035-.0359558l-2.6391975-1.2751827c-1.4599611-.5981745-3.3421631-1.1298211-5.737553-1.1298211-1.9329631 0-3.7980524.2774561-5.5462371.7877599M22.9779787 47.4893453c-4.7813583-1.1800055-8.2265819-4.9419098-8.2265819-13.7841634 0-4.7334812 1.1542403-8.0070013 2.9070396-10.2128058l-1.0930961-2.2350307c-4.2614406 2.7639854-7.05945904 7.2205873-7.05945904 12.4478365 0 6.6276043 4.53178234 13.5184362 13.47209744 15.1014548v-1.3172914Z" fill="#324D57"/><path d="M31.4013948 10.4001416v1.6706969c2.9649151 0 4.0478206.6562423 4.0478206 1.9096976 0 .7162328-.227464 1.8497071-.8554415 3.043172l-.9988803 2.0125659 1.5807112.7637252 2.9537631-5.938675c.5131879-1.0742529 1.8245187-1.7904857 4.3335445-1.7904857v-1.6706969H31.4013948ZM28.7082251 47.8410781v1.2367272c7.598989-.5924062 12.0442466-5.0838104 12.0442466-11.9454161h-1.9387314c-.3141811 5.813887-3.801898 10.0518698-10.1055152 10.7086889" fill="#324D57"/><g transform="translate(.693719)"><mask id="b" fill="#fff"><use xlink:href="#a"/></mask><path d="M11.6944943 61.9263476H38.918068l9.7132695-10.1660825V12.2397926L38.918068 2.07351781H11.6944943L1.98122473 12.2397926v39.5204725l9.71326957 10.1660825Zm28.0440207 2.0737101H10.8740473L0 52.618783V11.3810824L10.8740473 0H39.738515l10.8740473 11.3810824V52.618783L39.738515 64.0000577Z" fill="#324D57" mask="url(#b)"/></g><path d="m28.0415422 50.5076366-.0046146-16.3556793 5.6969825-11.4535709-1.4516932-1.0175312-5.2716653 10.6204336s-5.6335309-11.7237204-5.6294931-11.7256432l-1.6076301-3.2871717.0086525-.0046147-.2976452-.6183636c-.4568507-.9544643-.8554414-1.9687267-.8554414-2.624969 0-1.6116678.6843147-1.9696881 5.1882169-1.9696881v-1.6706969H9.50582357v1.6706969c2.62285393 0 3.47829533.4172417 3.99148333 1.4324655L23.703383 34.1519573s-.0101907 13.3246208-.003461 16.3089559c-.0369172 3.4054223-.8685163 3.6867239-6.2107472 3.6867239v1.5960934h16.3066485v-1.5960934c-4.8738436 0-5.7104419-.2791866-5.7542811-3.6400005" fill="#324D57"/></g></svg>