<svg xmlns="http://www.w3.org/2000/svg" xmlns:xlink="http://www.w3.org/1999/xlink" id="Warstwa_1" x="0px" y="0px" viewBox="0 0 512 512" style="enable-background:new 0 0 512 512;" xml:space="preserve"><style type="text/css">	.st0{fill:#D4021D;}</style><g>	<path d="M202.9,32.4L289,68.6c0,0-15.7,32.3-22.5,53.8c-6.8,19.6-22.5,68.5-22.5,68.5s-46,54.8-69.5,148.7  c-19.6,78.3-19.6,139.9-19.6,139.9h-36.2c0,0-4.9-101.7,20.5-226C156.9,169.4,202.9,32.4,202.9,32.4L202.9,32.4z"></path>	<path class="st0" d="M329.1,89.2c0,0-81.2,90-120.3,181c-47.9,110.6-45,208.4-45,208.4h84.1c0,0,1-78.3,42.1-173.2  c38.2-89,103.7-156.5,103.7-156.5L329.1,89.2z"></path></g></svg>