<?xml version="1.0" encoding="UTF-8"?>
<svg xmlns="http://www.w3.org/2000/svg" width="55" height="23" viewBox="0 0 55 23" fill="none">
  <path d="M35.4893 11.1418C35.1108 10.8464 34.6483 10.5931 34.1858 10.5087C34.5642 10.3821 34.9426 10.2133 35.237 9.96012C35.6154 9.66471 35.9518 9.32709 36.1621 8.94727C36.3723 8.60966 36.5405 8.22984 36.7087 7.68122C36.8348 7.217 36.9189 6.75278 36.9189 6.33076C36.9189 5.90874 36.8348 5.48672 36.7087 5.0647C36.5826 4.64269 36.3303 4.30507 35.9518 4.00966C35.6154 3.71425 35.237 3.58764 34.7744 3.58764C34.396 3.58764 33.9755 3.75645 33.7232 4.00966C33.3868 4.30507 33.2186 4.68489 33.2186 5.0647C33.2186 5.52892 33.3448 5.95094 33.5971 6.24636C33.8494 6.54177 34.2278 6.71058 34.7324 6.71058C35.1949 6.71058 35.4472 6.54177 35.6154 6.41516C35.6995 6.37296 35.7836 6.28856 35.8257 6.28856C35.9939 6.28856 36.0359 6.49957 36.0359 6.58397C36.0359 7.04819 35.8257 7.42801 35.3631 7.76562C34.9006 8.01883 34.4801 8.22984 33.9755 8.35645C33.6812 8.44085 33.3448 8.52526 33.0504 8.56746C32.8822 8.60966 32.714 8.65186 32.5459 8.69406C32.2515 8.77847 31.9151 8.86287 31.6208 8.94727C31.3685 9.03168 31.1582 9.07388 30.9059 9.15828C30.5696 9.24269 30.2332 9.32709 29.9388 9.4959C29.4342 9.70691 29.0558 9.96012 28.8035 10.2555C28.5092 10.5931 28.341 11.0152 28.341 11.5216C28.341 12.028 28.4671 12.2812 28.6773 12.2812C28.8876 12.2812 29.0558 12.1124 29.266 11.9014C29.6865 11.4794 30.2332 11.2684 30.8639 11.2684C31.4105 11.2684 31.831 11.395 32.2515 11.6482C32.6299 11.9014 32.9243 12.2812 33.1766 12.7876C33.3868 13.2941 33.513 13.7583 33.513 14.2225C33.513 14.6445 33.4289 15.0665 33.3027 15.6152C33.1766 16.1216 33.0084 16.5436 32.7981 16.9656C32.63 17.261 32.3777 17.7253 32.0413 18.1895C31.789 18.5693 31.4526 18.9069 31.1162 19.2867C30.8218 19.6243 30.4434 19.962 30.107 20.2996C29.7706 20.6372 29.4342 20.8904 29.0558 21.228C28.7194 21.5234 28.2569 21.7344 28.0466 21.7344C27.7943 21.7344 27.4159 21.5656 26.9954 21.228C26.617 20.9326 26.3226 20.6372 25.9442 20.2996C25.6078 19.962 25.3134 19.6665 25.0191 19.3289C24.8929 19.2023 24.8088 19.0757 24.6827 18.9913C24.4304 18.7381 24.1781 18.4427 23.9679 18.1895C23.6735 17.8097 23.4212 17.4298 23.1689 16.9656C22.9166 16.5436 22.7485 16.1216 22.5803 15.6574C22.328 15.1931 22.2859 14.7289 22.2859 14.2647C22.2859 13.7583 22.37 13.2941 22.5803 12.8298C22.7905 12.3234 23.1269 11.9858 23.5053 11.6904C23.8838 11.4372 24.3463 11.3106 24.8929 11.3106C25.3134 11.3106 25.6078 11.3528 25.9021 11.4794C26.1544 11.5638 26.4908 11.7326 26.7431 12.028C26.8692 12.1968 26.9954 12.2812 27.1636 12.2812C27.4159 12.2812 27.5841 11.9858 27.5841 11.606C27.5841 10.8886 27.1215 10.2977 26.659 9.83351C26.4067 9.5803 26.1124 9.28489 25.818 8.98948C25.6498 8.86287 25.5237 8.69406 25.3555 8.52526C24.8509 8.01883 24.5566 7.63902 24.3463 7.217C24.1781 6.87938 24.094 6.54177 24.0099 6.16195C23.9258 5.78214 23.8838 5.44452 23.8838 5.0647C23.8838 4.55828 23.9679 4.05186 24.094 3.58764C24.2622 3.12342 24.4725 2.6592 24.7248 2.32159C25.0191 1.89957 25.3975 1.60415 25.776 1.35094C26.1965 1.09773 26.659 0.971126 27.1636 0.971126C27.5841 0.971126 28.1307 1.01333 28.5933 1.18214C29.0558 1.35094 29.4763 1.68856 29.7286 2.06837C29.9809 2.40599 30.107 2.91241 30.107 3.50324C30.107 4.13626 29.7286 4.8537 29.224 4.8537C28.8876 4.8537 28.7194 4.30507 28.5092 4.09406C28.2989 3.84085 28.0466 3.67204 27.542 3.67204C27.0795 3.67204 26.7851 3.84085 26.4488 4.22067C26.1965 4.51608 26.0703 4.9381 26.0703 5.44452C26.0703 6.07755 26.2806 6.54177 26.7011 6.92159C27.1215 7.3014 27.5841 7.51241 28.2148 7.51241C28.8455 7.51241 29.266 7.42801 29.6445 7.3014C30.107 7.09039 30.5275 6.83718 30.8639 6.45737C31.1582 6.16195 31.4105 5.73993 31.6208 5.19131C31.789 4.72709 31.9151 4.26287 31.9151 3.79865C31.9151 3.20782 31.831 2.78581 31.7049 2.40599C31.5367 1.94177 31.2844 1.56195 30.948 1.22434C30.6537 0.971127 30.2752 0.675714 29.7286 0.464705C29.3501 0.295897 28.9296 0.169292 28.383 0.084888C27.9625 0.00048431 27.4579 -0.0417175 26.9533 -0.0417175C26.4488 -0.0417175 25.9862 0.0426861 25.5237 0.12709C24.935 0.211493 24.5145 0.338099 24.1361 0.506906C23.6735 0.717916 23.253 0.928925 22.8746 1.22434C22.4541 1.51975 22.1177 1.85737 21.8654 2.23718C21.5711 2.617 21.3608 3.03902 21.1926 3.54544C21.0244 4.05186 20.9403 4.55828 20.9403 5.0225C20.9403 5.52892 21.0244 6.03535 21.1926 6.54177C21.3608 6.96379 21.6131 7.38581 21.9495 7.85003C22.2859 8.27204 22.6644 8.60966 23.0428 8.90507C23.3792 9.15828 23.7576 9.41149 24.1361 9.6225C23.7576 9.5803 23.3371 9.5803 23.0007 9.6225C22.4962 9.6647 22.0757 9.79131 21.6972 9.91792C21.3188 10.0867 20.9403 10.2977 20.5619 10.5931C20.1835 10.8464 19.8891 11.184 19.6368 11.5216C19.4266 11.817 19.2163 12.1968 19.0481 12.7032C19.0481 13.0831 18.922 13.5473 18.922 14.0537C18.922 14.4757 18.964 14.9399 19.0902 15.4042C19.1743 15.8262 19.3425 16.2904 19.5527 16.7124C19.7209 17.0922 19.9732 17.472 20.2255 17.8941C20.4778 18.2739 20.7301 18.6537 21.0244 18.9913C21.2767 19.2867 21.5711 19.5821 21.8654 19.8353C22.2018 20.173 22.6644 20.5528 23.0428 20.8482C23.4212 21.1436 23.8417 21.439 24.2622 21.6922C24.6407 21.9032 25.0191 22.1564 25.3555 22.3253C25.818 22.5363 26.2806 22.6629 26.659 22.7895C27.1215 22.9583 27.5841 23.0427 28.0046 23.0427C28.4671 23.0427 28.8876 22.9161 29.3501 22.7895C29.7706 22.6629 30.1911 22.4941 30.6116 22.2831C30.99 22.1142 31.3685 21.861 31.789 21.6078C32.2095 21.3546 32.5459 21.1014 32.8822 20.8482C33.2186 20.595 33.5971 20.2996 33.9335 20.0042C34.2699 19.6665 34.6063 19.2867 34.9006 18.9069C35.1529 18.6115 35.4472 18.2739 35.6575 17.9363C35.9098 17.5564 36.078 17.1344 36.2462 16.7124C36.4144 16.3326 36.5826 15.9106 36.7087 15.4464C36.8348 14.9821 36.8348 14.5179 36.8348 14.0959C36.8348 13.5473 36.7087 12.9986 36.4985 12.4922C36.2041 11.9014 35.9098 11.4794 35.4893 11.1418Z" fill="#93C90E"></path>
  <path d="M15.8104 21.3124V1.39314C15.8104 1.09772 15.5581 0.844513 15.2638 0.844513H13.4557C13.1613 0.844513 12.909 1.09772 12.909 1.39314V9.7491H2.94342V1.39314C2.94342 1.09772 2.69113 0.844513 2.39679 0.844513H0.546636C0.252294 0.844513 0 1.09772 0 1.39314V21.3124C0 21.6078 0.252294 21.861 0.546636 21.861H2.35474C2.64908 21.861 2.90138 21.6078 2.90138 21.3124V12.661H12.8249V21.3124C12.8249 21.6078 13.0772 21.861 13.3716 21.861H15.1797C15.5581 21.9032 15.8104 21.65 15.8104 21.3124ZM51.8463 15.8262C51.8463 17.4298 50.7531 18.9913 48.5245 18.9913H43.0581V12.661H48.5245C50.711 12.661 51.8463 14.1803 51.8463 15.8262ZM51.0054 6.66837C51.0054 8.18763 50.0803 9.62249 48.0199 9.62249H43.1002V3.75644H48.0199C50.0382 3.75644 51.0054 5.1913 51.0054 6.66837ZM52.0145 10.9308C53.4021 9.96011 54.159 8.06103 54.159 6.54176C54.159 3.16561 51.7622 0.844513 48.2301 0.844513H40.4511C40.1988 0.844513 39.9885 1.05552 39.9885 1.30873V21.439C39.9885 21.6922 40.1988 21.9032 40.4511 21.9032H48.4404C52.8135 21.9032 55.042 19.3711 55.042 15.8262C55 13.1252 53.5283 11.5216 52.0145 10.9308Z" fill="#00594C"></path>
</svg>
