<?xml version="1.0" encoding="UTF-8"?><svg id="Logo_4farbig" xmlns="http://www.w3.org/2000/svg" xmlns:xlink="http://www.w3.org/1999/xlink" viewBox="0 0 144 144"><defs><style>.cls-1{fill:#009036;}.cls-1,.cls-2,.cls-3,.cls-4{stroke-width:0px;}.cls-2{fill:url(#Unbenannter_Verlauf_19);}.cls-3{fill:#fff;}.cls-4{fill:url(#Unbenannter_Verlauf_10);}</style><linearGradient id="Unbenannter_Verlauf_10" x1="85.87" y1="17.17" x2="85.87" y2="61.96" gradientUnits="userSpaceOnUse"><stop offset="0" stop-color="#009036" stop-opacity=".1"/><stop offset="1" stop-color="#009036"/></linearGradient><linearGradient id="Unbenannter_Verlauf_19" x1="68.47" y1="127.42" x2="68.47" y2="59.15" gradientUnits="userSpaceOnUse"><stop offset="0" stop-color="#ffed00" stop-opacity=".05"/><stop offset="1" stop-color="#ffed00"/></linearGradient></defs><rect class="cls-3" width="144" height="144"/><polygon class="cls-4" points="68.82 18.29 116.57 18.29 102.83 60.85 55.16 60.85 68.82 18.29"/><polygon class="cls-2" points="55.16 60.85 102.83 60.85 81.77 125.72 34.1 125.72 55.16 60.85"/><path class="cls-1" d="M137.58,62.05c2.43,3.62-1.08,9.07-5.45,8.59-2.09-.07-4.03-1.19-5.15-3.09-1.04-1.56-.93-3.85-.11-5.49h10.71Z"/><polygon class="cls-1" points="17.38 94.25 26.98 94.25 26.98 104.02 5.79 104.02 5.79 62.05 17.38 62.05 17.38 94.25"/><path class="cls-1" d="M86.4,78.11c.97,1.6,1.49,3.39,1.64,5.33v20.54h-10.97v-19.11c-.05-.78-.6-1.28-1.08-1.61-.67-.3-1.53-.34-2.16,0-.71.37-.97,1.27-1.01,2.05v18.71h-10.97v-21.43c.19-3.77,2.77-7.08,6.2-8.39,5.22-1.98,12.65-1.9,16.86,2.01l1.49,1.9Z"/><rect class="cls-1" x="126.76" y="73.26" width="11.41" height="30.75"/><path class="cls-1" d="M122.5,89.66c0,6.09-4.46,11.13-9.83,13.22-5.11,2.27-11.98,1.31-16.12-2.27-4.92-3.84-6.98-10.18-5.3-16.33,1.42-5.59,6.72-10.1,12.35-11.15,1.83-.22,3.47-.3,5.22.07l2.02,9.39v-20.55h11.66v27.61ZM104.75,84.43c-1.45.56-2.24,1.86-2.65,3.24-.26,1.45.22,2.83,1.12,3.8,1.01,1.01,2.54,1.57,3.95,1.34,1.53-.11,2.69-1.23,3.36-2.54.52-1.34.37-3.02-.41-4.21-1.12-1.71-3.47-2.46-5.37-1.64Z"/><path class="cls-1" d="M56.41,81.19c1.16,2.42,1.79,5.03,1.86,7.9v14.93h-11.27v-10.2l-2.61,10.4c-6.71.56-12.98-2.68-15.97-8.42-2.35-4.32-2.2-10.66.37-14.84,3.36-5.59,9.85-8.65,16.56-7.53,4.51.86,8.88,3.43,11.04,7.76ZM43.5,84.39c-1.79-.45-3.47.37-4.51,1.68-.78,1.16-1.12,3.06-.41,4.36.74,1.45,2.35,2.68,4.14,2.53,1.6.04,3.17-1.04,3.8-2.46.52-1.23.52-2.94-.19-4.06-.64-1.08-1.72-1.72-2.84-2.05Z"/><polygon class="cls-1" points="46.41 86.4 46.41 86.4 46.41 86.4 46.41 86.4"/></svg>