<svg width="32" height="32" viewBox="0 0 32 32" fill="none" xmlns="http://www.w3.org/2000/svg">
<mask id="mask0" mask-type="alpha" maskUnits="userSpaceOnUse" x="0" y="0" width="32" height="32">
<rect width="32" height="32" fill="#C4C4C4"/>
</mask>
<g mask="url(#mask0)">
<path d="M23.0005 4.0003C25.7614 4.0003 27.9999 15.6407 27.9999 30H32.0002C32.0002 14.5358 27.9704 2 23.0006 2C20.1729 2 17.6501 5.76749 16.0005 11.6588C14.3512 5.76749 11.8276 2 9.0001 2C4.03032 2 0 14.5358 0 30H4.00086C4.00086 15.6407 6.23958 4.0003 9.0001 4.0003C11.7614 4.0003 14.0008 14.7453 14.0008 28.0008H18.0002C18.0003 14.7453 20.2389 4.0003 23.0005 4.0003V4.0003ZM34.0026 28.0008C34.5452 28.0008 35 28.4304 35 28.9957C35 29.5699 34.5452 29.9998 34.0026 29.9998C33.4581 29.9998 32.9995 29.5696 32.9995 28.9957C32.9995 28.4304 33.4581 28.0008 34.0026 28.0008ZM34.0026 29.8539C34.4621 29.8539 34.819 29.4846 34.819 28.996C34.819 28.516 34.4619 28.1471 34.0026 28.1471C33.5373 28.1471 33.1808 28.516 33.1808 28.996C33.1807 29.4845 33.5373 29.8539 34.0026 29.8539ZM33.6136 28.4151H34.0643C34.3401 28.4151 34.4702 28.525 34.4702 28.7488C34.4702 28.96 34.3384 29.0483 34.1656 29.0666L34.4974 29.5834H34.3026L33.9865 29.0807H33.7953V29.5834H33.6139L33.6136 28.4151V28.4151ZM33.7951 28.9341H33.9841C34.1432 28.9341 34.2898 28.9262 34.2898 28.741C34.2898 28.5857 34.1569 28.5613 34.0346 28.5613H33.7954L33.7951 28.9341Z" fill="#FFBC0D"/>
</g>
</svg>
