<?xml version="1.0" standalone="no"?>
<!DOCTYPE svg PUBLIC "-//W3C//DTD SVG 20010904//EN"
 "http://www.w3.org/TR/2001/REC-SVG-20010904/DTD/svg10.dtd">
<svg version="1.0" xmlns="http://www.w3.org/2000/svg"
 width="512.000000pt" height="512.000000pt" viewBox="0 0 512.000000 512.000000"
 preserveAspectRatio="xMidYMid meet">
<metadata>
Created by potrace 1.11, written by Peter Selinger 2001-2013
</metadata>
<g transform="translate(0.000000,512.000000) scale(0.100000,-0.100000)"
fill="#000000" stroke="none">
<path d="M990 3361 c-242 -53 -428 -158 -601 -338 -127 -132 -198 -247 -257
-415 -52 -146 -65 -240 -59 -428 4 -167 26 -286 70 -392 l16 -38 105 0 c59 0
106 2 106 4 0 2 -16 37 -35 78 -73 158 -104 346 -85 509 16 137 42 226 105
354 101 208 260 367 470 470 408 201 887 126 1239 -196 91 -83 49 -20 -58 87
-146 147 -309 241 -513 296 -114 30 -383 35 -503 9z"/>
<path d="M3720 2483 c-132 -46 -213 -160 -229 -323 -15 -141 14 -236 96 -318
73 -73 129 -96 241 -100 73 -3 107 1 162 17 41 13 70 27 70 35 0 11 -11 47
-34 112 -3 8 -21 6 -58 -7 -71 -25 -113 -23 -174 5 -83 39 -124 110 -124 215
0 155 84 249 210 237 31 -3 72 -12 92 -20 l36 -16 26 68 c24 61 25 68 10 79
-46 34 -245 44 -324 16z"/>
<path d="M540 2120 l0 -371 78 3 77 3 5 220 c5 202 6 218 20 193 8 -14 78
-114 155 -222 l140 -195 78 -1 77 0 0 370 0 370 -80 0 -80 0 0 -230 0 -231
-101 148 c-55 82 -126 185 -156 231 l-56 82 -79 0 -78 0 0 -370z"/>
<path d="M2600 2126 l0 -366 85 0 85 0 0 141 0 140 37 -3 c37 -3 37 -4 111
-145 l75 -143 99 0 c76 0 99 3 95 13 -2 6 -46 82 -96 167 -89 150 -91 155 -68
161 78 21 127 94 127 191 0 74 -21 116 -79 155 -55 37 -97 44 -288 50 l-183 6
0 -367z m337 205 c39 -24 51 -67 29 -109 -19 -37 -60 -52 -137 -52 l-59 0 0
90 0 90 68 0 c48 0 76 -5 99 -19z"/>
<path d="M4578 2422 c-86 -158 -184 -454 -203 -614 l-7 -58 85 0 84 0 7 40 c3
22 11 63 17 90 l11 50 133 0 134 0 10 -52 c6 -29 13 -70 17 -90 l6 -38 89 0
89 0 0 26 c0 107 -90 404 -180 592 l-59 122 -98 0 -99 0 -36 -68z m197 -262
l33 -95 -100 -3 c-55 -1 -103 -1 -106 2 -6 7 43 155 75 226 l25 55 20 -45 c11
-25 35 -88 53 -140z"/>
<path d="M1252 2213 c4 -297 5 -307 72 -381 20 -22 60 -50 89 -63 48 -22 65
-24 222 -24 94 0 187 4 208 8 l37 8 0 359 0 360 -80 0 -80 0 -2 -302 -3 -303
-80 -3 c-67 -2 -87 1 -124 20 -85 44 -86 45 -89 334 l-3 254 -85 0 -85 0 3
-267z"/>
<path d="M1932 2413 l3 -68 113 -3 112 -3 0 -295 0 -295 83 3 82 3 3 292 2
292 108 3 107 3 3 68 3 67 -311 0 -311 0 3 -67z"/>
<path d="M3250 2115 l0 -366 83 3 82 3 3 363 2 362 -85 0 -85 0 0 -365z"/>
<path d="M4130 2115 l0 -365 85 0 85 0 0 365 0 365 -85 0 -85 0 0 -365z"/>
</g>
</svg>
