<svg xmlns="http://www.w3.org/2000/svg" id="ad79d770-f9fc-4c75-bbc6-8fc7af9edbb4" data-name="Capa 1" viewBox="0 0 48.85 48.8"><defs><style>.b35f8a10-ae93-4bce-81c8-2018362d8dc9{fill:#0783b7;}.b16d1e29-8516-4380-abdf-f8e683dc90da{fill:none;}.ac24961a-8ffc-4d2e-8af9-e176e9c8e9ea{fill:#eeb541;}</style></defs><rect class="b35f8a10-ae93-4bce-81c8-2018362d8dc9" x="39.88" y="12.32" width="1.6" height="5.05" transform="translate(32.4 -27.66) rotate(58.93)"></rect><circle class="b35f8a10-ae93-4bce-81c8-2018362d8dc9" cx="24.45" cy="24.4" r="13.17"></circle><rect class="b35f8a10-ae93-4bce-81c8-2018362d8dc9" x="33.33" y="37.96" width="1.6" height="5.05" transform="matrix(-0.86, 0.52, -0.52, -0.86, 84.25, 57.55)"></rect><rect class="b35f8a10-ae93-4bce-81c8-2018362d8dc9" x="7.58" y="31.65" width="1.6" height="5.05" transform="matrix(-0.52, -0.86, 0.86, -0.52, -16.57, 58.99)"></rect><rect class="b35f8a10-ae93-4bce-81c8-2018362d8dc9" x="33.18" y="5.68" width="1.6" height="5.05" transform="translate(8.63 -15.86) rotate(29.93)"></rect><rect class="b35f8a10-ae93-4bce-81c8-2018362d8dc9" x="23.77" y="3.08" width="1.6" height="5.05" transform="matrix(1, 0, 0, 1, -0.02, 0.1)"></rect><rect class="b35f8a10-ae93-4bce-81c8-2018362d8dc9" x="42.44" y="21.79" width="1.6" height="5.05" transform="matrix(0, 1, -1, 0, 67.38, -19.03)"></rect><rect class="b35f8a10-ae93-4bce-81c8-2018362d8dc9" x="13.99" y="5.73" width="1.6" height="5.05" transform="translate(-2.14 8.75) rotate(-30.85)"></rect><rect class="b35f8a10-ae93-4bce-81c8-2018362d8dc9" x="7.39" y="12.44" width="1.6" height="5.05" transform="matrix(0.5, -0.86, 0.86, 0.5, -8.86, 14.53)"></rect><rect class="b35f8a10-ae93-4bce-81c8-2018362d8dc9" x="4.81" y="21.87" width="1.6" height="5.05" transform="translate(-18.79 30.01) rotate(-90.01)"></rect><rect class="b35f8a10-ae93-4bce-81c8-2018362d8dc9" x="23.81" y="40.67" width="1.6" height="5.05" transform="matrix(-1, 0, 0, -1, 49.38, 86.29)"></rect><path class="b16d1e29-8516-4380-abdf-f8e683dc90da" d="M11.49,22A14,14,0,0,1,12,20a26.79,26.79,0,0,0-3.14,6"></path><path class="ac24961a-8ffc-4d2e-8af9-e176e9c8e9ea" d="M22.15,12.71s-3.8.23-8.27,3.83A13.33,13.33,0,0,0,12,20,19.87,19.87,0,0,1,22.15,12.71Z"></path><path class="ac24961a-8ffc-4d2e-8af9-e176e9c8e9ea" d="M11.33,25.63c2.42-4.77,6.85-9,14.34-11.8,0,0-7.61-.44-14.17,8.18A13.3,13.3,0,0,0,11.33,25.63Z"></path><path class="ac24961a-8ffc-4d2e-8af9-e176e9c8e9ea" d="M29.27,15.9S18.45,15.29,11.5,26.59l0,.06a12.82,12.82,0,0,0,1.1,3.43C15.14,24.22,19.85,18.87,29.27,15.9Z"></path><path class="b35f8a10-ae93-4bce-81c8-2018362d8dc9" d="M38.08,37.06a1.43,1.43,0,0,0-.3-.44,1.37,1.37,0,0,0-.45-.3,1.4,1.4,0,0,0-.54-.1,1.45,1.45,0,0,0-.55.1,1.37,1.37,0,0,0-.45.3,1.43,1.43,0,0,0-.3.44,1.5,1.5,0,0,0-.11.55,1.37,1.37,0,0,0,.41,1,1.37,1.37,0,0,0,.45.3,1.46,1.46,0,0,0,.55.11,1.41,1.41,0,0,0,.54-.11,1.37,1.37,0,0,0,.45-.3,1.43,1.43,0,0,0,.3-.44,1.27,1.27,0,0,0,.11-.54A1.32,1.32,0,0,0,38.08,37.06Zm-1.29,1.65a1.11,1.11,0,1,1,1.12-1.1A1.11,1.11,0,0,1,36.79,38.71Z"></path><path class="b35f8a10-ae93-4bce-81c8-2018362d8dc9" d="M37.33,37.84a.79.79,0,0,0-.18-.22.42.42,0,0,0,.06-.74.9.9,0,0,0-.5-.12,4.26,4.26,0,0,0-.47,0h0V38.4h.29v-.68h.26a.3.3,0,0,1,.26.16,1.17,1.17,0,0,1,.16.49v0h.29v0A2.38,2.38,0,0,0,37.33,37.84Zm-.58-.35H36.5V37h.21q.42,0,.42.24C37.13,37.41,37,37.49,36.75,37.49Z"></path><rect class="b35f8a10-ae93-4bce-81c8-2018362d8dc9" x="39.94" y="31.25" width="1.6" height="5.05" transform="translate(90.33 15.33) rotate(119.93)"></rect><rect class="b35f8a10-ae93-4bce-81c8-2018362d8dc9" x="14.33" y="38.21" width="1.6" height="5.05" transform="translate(7.92 83.59) rotate(-150.07)"></rect></svg>