<?xml version="1.0" encoding="utf-8"?>
<!-- Generator: Adobe Illustrator 27.9.0, SVG Export Plug-In . SVG Version: 6.00 Build 0)  -->
<svg version="1.1" id="a" xmlns="http://www.w3.org/2000/svg" xmlns:xlink="http://www.w3.org/1999/xlink" x="0px" y="0px"
	 viewBox="0 0 534.9 493.5" style="enable-background:new 0 0 534.9 493.5;" xml:space="preserve">
<style type="text/css">
	.st0{fill-rule:evenodd;clip-rule:evenodd;fill:#164193;}
	.st1{fill-rule:evenodd;clip-rule:evenodd;fill:#FFDA00;}
	.st2{fill-rule:evenodd;clip-rule:evenodd;fill:#F29111;}
	.st3{fill-rule:evenodd;clip-rule:evenodd;fill:#312A84;}
	.st4{fill-rule:evenodd;clip-rule:evenodd;fill:#E20613;}
</style>
<path class="st0" d="M497.2,405.5l-1.6,4.5l-1.9,4.5l-2.1,4.5l-2.4,4.4l-2.7,4.4l-2.9,4.3l-3.2,4.3l-3.4,4.2l-3.6,4.1l-3.9,4
	l-4.1,3.8l-4.3,3.7l-4.5,3.5l-4.7,3.3l-4.9,3.1l-5,2.9l-5.2,2.6l-5.4,2.4L426,476l-5.7,1.8l-5.8,1.5l-5.9,1.2l-6.1,0.9l-6.2,0.5
	l-6.3,0.1l-6.4-0.3l-6.4-0.7l-6.5-1.1l-6.6-1.6l-11.6-3.5c3.1-2,6.1-3.9,9.1-6c2.4-1.7,4.8-3.5,7.1-5.3c1.9-1.6,3.8-3.2,5.7-4.9
	c2-1.9,3.9-3.8,5.8-5.7l3.9-4.3l3.8-4.7l3.7-5l3.5-5.4l1.7-2.9l1.6-3l1.5-3.1l1.5-3.2l1.4-3.3l1.3-3.4l1.2-3.5l1.1-3.6l1-3.7
	l0.9-3.8l23.2-109.3l21.6-101.4l2.3-1.2l0,0l2,1.4l74.8,52.7l-32.9,154.5l-0.9,4.3L497.2,405.5L497.2,405.5z"/>
<path class="st1" d="M444.2,243.3l11.1-52.3l74.3,52.3l-10.2,48L497,396.2c-8.2,45.1-69.2,101.4-138.7,77.9
	c15.9-10,45.3-34,53.2-77.6L434,291.3L444.2,243.3L444.2,243.3z"/>
<path class="st0" d="M322,394.1h-0.2l-1,6.3l-0.5,4.2l-0.3,4.1l-0.1,4l0.1,3.9l0.3,3.7l0.4,3.6l0.6,3.5l0.7,3.4l0.9,3.3l1,3.2
	l1.1,3.1l1.2,2.9l1.3,2.8l1.4,2.7l1.5,2.6l1.6,2.5l1.6,2.3l1.7,2.2l1.7,2.1l1.7,2l3.5,3.6l3.6,3.1l3.5,2.6l3.4,2.2l3.2,1.7l2.7,1.2
	l6-4c2.4-1.7,4.8-3.5,7.1-5.3l4.5-3.8l4.4-4l4.2-4.2l4-4.5l3.8-4.7l3.5-4.9l3.3-5.1l3-5.4l2.8-5.6l2.5-5.8l2.2-6.1l1.9-6.3
	c0.7-2.7,1.3-5.3,1.9-8h0.1l23.4-110.1H437l21-98.9l-2.5-1.8l-101.2,54l-11,51.6h0.1L322,394.1L322,394.1z"/>
<path class="st2" d="M324,396.5C323.9,396.5,323.9,396.5,324,396.5c-8.5,45.2,19.9,71.7,34.4,77.6c26.2-16.9,46.6-41.7,53.2-77.6
	h0.1l22.4-105.3H434L455.3,191l-98.9,52.8l-10.1,47.6h0.1L324,396.5L324,396.5z"/>
<path class="st0" d="M93.1,250.6L81.7,304l-2.3,1.2L2.6,251.2L35.5,96.7l0.9-4.3l1.3-4.5l1.6-4.5l1.9-4.5l2.1-4.5l2.4-4.4l2.7-4.4
	l2.9-4.3l3.2-4.3l3.4-4.2l3.6-4.1l3.9-4l4.1-3.8l4.3-3.7l4.5-3.5l4.7-3.3l4.9-3.1l5-2.9l5.2-2.6l5.4-2.4l5.5-2.1l5.7-1.8l5.8-1.5
	l5.9-1.2l6.1-0.9l6.2-0.5l6.3-0.1l6.4,0.3l6.4,0.7l6.5,1.1l6.6,1.6l11.6,3.5c-3.1,2-6.1,3.9-9.1,6c-2.4,1.7-4.8,3.5-7.1,5.3
	c-1.9,1.6-3.8,3.2-5.7,4.9c-2,1.9-3.9,3.8-5.8,5.7l-3.9,4.3l-3.8,4.7l-3.7,5l-3.5,5.4l-1.7,2.9l-1.6,3l-1.5,3.1l-1.5,3.2l-1.4,3.3
	l-1.3,3.4l-1.2,3.5l-1.1,3.6l-1,3.7l-0.9,3.8l-0.8,4L93.1,250.6L93.1,250.6z"/>
<path class="st1" d="M90.7,250.1l-11.1,52.3L5.3,250.1l10.2-48L37.8,97.2C46,52.1,107.1-4.2,176.5,19.3c-15.9,10-45.3,34-53.2,77.6
	l-22.4,105.3L90.7,250.1L90.7,250.1z"/>
<path class="st3" d="M79.4,305.3l1.4-0.8l99.8-53.2l32.7-154l0.7-4.3l0.5-4.2l0.3-4.1l0.1-4l-0.1-3.9l-0.3-3.7l-0.4-3.6l-0.6-3.5
	l-0.7-3.4l-0.9-3.3l-1-3.2l-1.1-3.1l-1.2-2.9l-1.3-2.8l-1.4-2.7l-1.5-2.6l-1.6-2.5l-1.6-2.3l-1.7-2.2l-1.7-2.1l-3.5-3.8l-3.6-3.4
	l-3.5-2.9l-3.5-2.4l-3.3-1.9l-1.6-0.8l-2.7-1.2l-6,4l-4.8,3.5c-2.3,1.8-4.6,3.7-6.9,5.7l-4.4,4l-4.2,4.2l-4,4.5l-3.8,4.7l-3.5,4.9
	l-3.3,5.1l-3,5.4l-2.8,5.6l-2.5,5.9l-2.2,6.1l-1.9,6.4l-1.6,6.6l-23,108.5L76.9,303.5L79.4,305.3L79.4,305.3z"/>
<path class="st2" d="M79.6,302.4l98.9-52.7l10.1-47.6L211,96.9c8.4-45.2-19.9-71.7-34.5-77.6C150.3,36.2,129.9,61,123.3,97
	l-22.4,105.1L79.6,302.4L79.6,302.4z"/>
<polygon class="st0" points="143.2,416.5 143.5,421.3 144.1,425.8 145,430.2 146.1,434.3 147.4,438.3 149,442.1 150.7,445.7 
	152.7,449.2 154.8,452.4 157,455.5 159.5,458.4 162,461.1 164.7,463.6 167.5,466 170.3,468.2 173.3,470.2 176.3,472.1 179.4,473.8 
	182.5,475.3 185.6,476.7 188.8,477.9 191.9,478.9 195.1,479.8 198.2,480.6 201.2,481.2 204.3,481.6 207.2,481.9 210.1,482.1 
	298.8,482.1 284.4,476.5 279.7,474.4 274.7,471.9 269.7,469 264.8,465.7 262.3,463.9 259.9,462 257.5,459.9 255.2,457.8 
	252.9,455.6 250.8,453.3 248.7,450.8 246.7,448.3 244.8,445.6 243,442.9 241.4,440 239.9,437 238.5,433.9 237.3,430.8 236.3,427.4 
	235.4,424 234.8,420.5 234.3,416.8 234,413 233.9,409.1 234.1,405.1 234.5,401 235.2,396.9 298.9,97.3 299.7,92.3 300.2,87.4 
	300.4,82.7 300.4,78.1 300.2,73.7 299.7,69.5 299,65.4 298.1,61.4 297,57.6 295.8,54 294.3,50.5 292.7,47.2 290.9,44 289,41 
	286.9,38.1 284.8,35.4 282.5,32.9 280.1,30.4 277.7,28.2 275.2,26.1 272.6,24.1 270,22.2 267.3,20.6 264.6,19 261.9,17.6 
	259.2,16.3 256.5,15.2 253.8,14.2 251.1,13.4 248.5,12.6 245.9,12.1 243.3,11.6 137.2,11.6 132.3,12 126.3,12.8 123.1,13.5 
	155.5,17 160.4,17.8 165,18.8 169.4,20.1 173.4,21.6 177.2,23.3 180.7,25.1 184,27.2 187,29.4 189.8,31.7 192.4,34.2 194.8,36.8 
	197,39.5 199,42.3 200.8,45.2 202.4,48.2 203.8,51.3 205.1,54.4 206.2,57.6 207.1,60.7 207.9,63.9 208.6,67.1 209.1,70.3 
	209.4,73.5 209.7,76.6 209.8,79.7 209.8,82.7 209.8,85.7 209.6,88.5 209.3,91.3 208.6,96.1 144.2,398.7 144.4,398.7 143.9,401.3 
	143.4,406.5 143.2,411.6 143.2,416.5 "/>
<path class="st4" d="M147.2,396.2c-10.7,58,33.8,82.6,63,83.4c23.9,0,51.7,0,75.7,0c-24.7-9.3-61.7-35.7-53.1-83.4h0l63.7-299.4
	C306.2,43.7,268.4,18,243,14c-23.9,0-68.6,0-92.5,0c58.4,4.7,65.5,56.1,60.3,82.9h0L147.2,396.2L147.2,396.2L147.2,396.2
	L147.2,396.2z"/>
<path class="st0" d="M391.5,76.6l-0.4-4.7l-0.6-4.5l-0.9-4.3l-1.1-4.2l-1.4-4l-1.6-3.8l-1.8-3.6l-2-3.4l-2.1-3.2l-2.3-3.1L375,35
	l-2.6-2.7l-2.7-2.5l-2.8-2.4l-2.9-2.2l-3-2l-3-1.8l-3.1-1.7l-3.1-1.5l-3.2-1.4l-3.2-1.2l-3.2-1l-3.2-0.9L336,13l-3.1-0.6l-3-0.4
	l-3-0.3l-2.9-0.1H221.7l23.6,5.5l2.9,0.8l2.9,0.9l2.8,1l2.8,1.1l2.7,1.3l2.7,1.4l2.6,1.5l2.6,1.6l2.5,1.7l2.4,1.8l2.3,2l2.3,2.1
	l2.2,2.2l2.1,2.3l1.9,2.4l1.8,2.5l1.7,2.7l1.6,2.8l1.4,2.9l1.3,3l1.2,3.1l1,3.3l0.9,3.4l0.7,3.5l0.5,3.6l0.3,3.8l0.1,3.9l-0.1,4
	l-0.3,4.1l-0.5,4.3l-0.7,4.3l-63.6,299c-0.2,0.3-0.1,0.2-0.1,0.7l-0.7,4.3l-0.5,4.4l-0.3,4.3v4.2l0.2,4l0.5,3.9l0.7,3.8l0.9,3.7
	l1.1,3.6l1.3,3.4l1.4,3.3l1.6,3.2l1.8,3.1l1.9,2.9l2,2.8l2.1,2.7l2.2,2.6l2.3,2.5l2.4,2.4l2.5,2.2l2.5,2.1l2.6,2l2.6,1.9l5.2,3.5
	l5.2,3.1l5.1,2.7l4.9,2.3l2.8,1.2c34,0,68-0.1,101.9-0.1l4.7,0v0l5-0.1l6.2-0.5l6.1-0.9l5.9-1.2l1.2-0.3l-31.6-2.2l-4.8-0.6
	l-4.6-0.8l-4.3-1l-4.1-1.2l-3.9-1.4l-3.7-1.6l-3.4-1.8l-3.2-1.9l-3-2.1l-2.8-2.3l-2.6-2.4l-2.4-2.5l-2.3-2.6l-2.1-2.7l-1.9-2.9
	l-1.7-2.9l-1.5-3l-1.4-3.1l-1.2-3.2l-1-3.2l-0.9-3.3l-0.7-3.3l-0.6-3.4l-0.4-3.4l-0.3-3.4l-0.1-3.4l0-3.4l0.1-3.4l0.3-3.3l0.4-3.3
	l0.5-3.3l63.7-299.3l0.8-5.5l0.5-5.3l0.2-5.1L391.5,76.6L391.5,76.6z"/>
<path class="st0" d="M324,396.2L324,396.2l63.7-299.3C398,39.1,353.3,14.5,323.9,14c-25.3,0-55.7,0-81,0c32,6.7,62.2,34.2,53.6,82.9
	h0l-63.7,299.3c0,0,0,0,0,0.1h0c-9.6,47.6,28.1,73.5,52.4,83.5c25.3,0,78.6-0.1,103.9-0.1C332.6,477.1,317.6,431.4,324,396.2
	L324,396.2z"/>
<path class="st0" d="M497.2,405.5l-1.6,4.5l-1.9,4.5l-2.1,4.5l-2.4,4.4l-2.7,4.4l-2.9,4.3l-3.2,4.3l-3.4,4.2l-3.6,4.1l-3.9,4
	l-4.1,3.8l-4.3,3.7l-4.5,3.5l-4.7,3.3l-4.9,3.1l-5,2.9l-5.2,2.6l-5.4,2.4L426,476l-5.7,1.8l-5.8,1.5l-5.9,1.2l-6.1,0.9l-6.2,0.5
	l-6.3,0.1l-6.4-0.3l-6.4-0.7l-6.5-1.1l-6.6-1.6l-11.6-3.5c3.1-2,6.1-3.9,9.1-6c2.4-1.7,4.8-3.5,7.1-5.3c1.9-1.6,3.8-3.2,5.7-4.9
	c2-1.9,3.9-3.8,5.8-5.7l3.9-4.3l3.8-4.7l3.7-5l3.5-5.4l1.7-2.9l1.6-3l1.5-3.1l1.5-3.2l1.4-3.3l1.3-3.4l1.2-3.5l1.1-3.6l1-3.7
	l0.9-3.8l23.2-109.3l21.6-101.4l2.3-1.2l0,0l2,1.4l74.8,52.7l-32.9,154.5l-0.9,4.3L497.2,405.5L497.2,405.5z"/>
<path class="st1" d="M444.2,243.3l11.1-52.3l74.3,52.3l-10.2,48L497,396.2c-8.2,45.1-69.2,101.4-138.7,77.9
	c15.9-10,45.3-34,53.2-77.6L434,291.3L444.2,243.3L444.2,243.3z"/>
<path class="st0" d="M322,394.1h-0.2l-1,6.3l-0.5,4.2l-0.3,4.1l-0.1,4l0.1,3.9l0.3,3.7l0.4,3.6l0.6,3.5l0.7,3.4l0.9,3.3l1,3.2
	l1.1,3.1l1.2,2.9l1.3,2.8l1.4,2.7l1.5,2.6l1.6,2.5l1.6,2.3l1.7,2.2l1.7,2.1l1.7,2l3.5,3.6l3.6,3.1l3.5,2.6l3.4,2.2l3.2,1.7l2.7,1.2
	l6-4c2.4-1.7,4.8-3.5,7.1-5.3l4.5-3.8l4.4-4l4.2-4.2l4-4.5l3.8-4.7l3.5-4.9l3.3-5.1l3-5.4l2.8-5.6l2.5-5.8l2.2-6.1l1.9-6.3
	c0.7-2.7,1.3-5.3,1.9-8h0.1l23.4-110.1H437l21-98.9l-2.5-1.8l-101.2,54l-11,51.6h0.1L322,394.1L322,394.1z"/>
<path class="st2" d="M324,396.5C323.9,396.5,323.9,396.5,324,396.5c-8.5,45.2,19.9,71.7,34.4,77.6c26.2-16.9,46.6-41.7,53.2-77.6
	h0.1l22.4-105.3H434L455.3,191l-98.9,52.8l-10.1,47.6h0.1L324,396.5L324,396.5z"/>
<path class="st0" d="M93.1,250.6L81.7,304l-2.3,1.2L2.6,251.2L35.5,96.7l0.9-4.3l1.3-4.5l1.6-4.5l1.9-4.5l2.1-4.5l2.4-4.4l2.7-4.4
	l2.9-4.3l3.2-4.3l3.4-4.2l3.6-4.1l3.9-4l4.1-3.8l4.3-3.7l4.5-3.5l4.7-3.3l4.9-3.1l5-2.9l5.2-2.6l5.4-2.4l5.5-2.1l5.7-1.8l5.8-1.5
	l5.9-1.2l6.1-0.9l6.2-0.5l6.3-0.1l6.4,0.3l6.4,0.7l6.5,1.1l6.6,1.6l11.6,3.5c-3.1,2-6.1,3.9-9.1,6c-2.4,1.7-4.8,3.5-7.1,5.3
	c-1.9,1.6-3.8,3.2-5.7,4.9c-2,1.9-3.9,3.8-5.8,5.7l-3.9,4.3l-3.8,4.7l-3.7,5l-3.5,5.4l-1.7,2.9l-1.6,3l-1.5,3.1l-1.5,3.2l-1.4,3.3
	l-1.3,3.4l-1.2,3.5l-1.1,3.6l-1,3.7l-0.9,3.8l-0.8,4L93.1,250.6L93.1,250.6z"/>
<path class="st1" d="M90.7,250.1l-11.1,52.3L5.3,250.1l10.2-48L37.8,97.2C46,52.1,107.1-4.2,176.5,19.3c-15.9,10-45.3,34-53.2,77.6
	l-22.4,105.3L90.7,250.1L90.7,250.1z"/>
<path class="st3" d="M79.4,305.3l1.4-0.8l99.8-53.2l32.7-154l0.7-4.3l0.5-4.2l0.3-4.1l0.1-4l-0.1-3.9l-0.3-3.7l-0.4-3.6l-0.6-3.5
	l-0.7-3.4l-0.9-3.3l-1-3.2l-1.1-3.1l-1.2-2.9l-1.3-2.8l-1.4-2.7l-1.5-2.6l-1.6-2.5l-1.6-2.3l-1.7-2.2l-1.7-2.1l-3.5-3.8l-3.6-3.4
	l-3.5-2.9l-3.5-2.4l-3.3-1.9l-1.6-0.8l-2.7-1.2l-6,4l-4.8,3.5c-2.3,1.8-4.6,3.7-6.9,5.7l-4.4,4l-4.2,4.2l-4,4.5l-3.8,4.7l-3.5,4.9
	l-3.3,5.1l-3,5.4l-2.8,5.6l-2.5,5.9l-2.2,6.1l-1.9,6.4l-1.6,6.6l-23,108.5L76.9,303.5L79.4,305.3L79.4,305.3z"/>
<path class="st2" d="M79.6,302.4l98.9-52.7l10.1-47.6L211,96.9c8.4-45.2-19.9-71.7-34.5-77.6C150.3,36.2,129.9,61,123.3,97
	l-22.4,105.1L79.6,302.4L79.6,302.4z"/>
<polygon class="st0" points="143.2,416.5 143.5,421.3 144.1,425.8 145,430.2 146.1,434.3 147.4,438.3 149,442.1 150.7,445.7 
	152.7,449.2 154.8,452.4 157,455.5 159.5,458.4 162,461.1 164.7,463.6 167.5,466 170.3,468.2 173.3,470.2 176.3,472.1 179.4,473.8 
	182.5,475.3 185.6,476.7 188.8,477.9 191.9,478.9 195.1,479.8 198.2,480.6 201.2,481.2 204.3,481.6 207.2,481.9 210.1,482.1 
	298.8,482.1 284.4,476.5 279.7,474.4 274.7,471.9 269.7,469 264.8,465.7 262.3,463.9 259.9,462 257.5,459.9 255.2,457.8 
	252.9,455.6 250.8,453.3 248.7,450.8 246.7,448.3 244.8,445.6 243,442.9 241.4,440 239.9,437 238.5,433.9 237.3,430.8 236.3,427.4 
	235.4,424 234.8,420.5 234.3,416.8 234,413 233.9,409.1 234.1,405.1 234.5,401 235.2,396.9 298.9,97.3 299.7,92.3 300.2,87.4 
	300.4,82.7 300.4,78.1 300.2,73.7 299.7,69.5 299,65.4 298.1,61.4 297,57.6 295.8,54 294.3,50.5 292.7,47.2 290.9,44 289,41 
	286.9,38.1 284.8,35.4 282.5,32.9 280.1,30.4 277.7,28.2 275.2,26.1 272.6,24.1 270,22.2 267.3,20.6 264.6,19 261.9,17.6 
	259.2,16.3 256.5,15.2 253.8,14.2 251.1,13.4 248.5,12.6 245.9,12.1 243.3,11.6 137.2,11.6 132.3,12 126.3,12.8 123.1,13.5 
	155.5,17 160.4,17.8 165,18.8 169.4,20.1 173.4,21.6 177.2,23.3 180.7,25.1 184,27.2 187,29.4 189.8,31.7 192.4,34.2 194.8,36.8 
	197,39.5 199,42.3 200.8,45.2 202.4,48.2 203.8,51.3 205.1,54.4 206.2,57.6 207.1,60.7 207.9,63.9 208.6,67.1 209.1,70.3 
	209.4,73.5 209.7,76.6 209.8,79.7 209.8,82.7 209.8,85.7 209.6,88.5 209.3,91.3 208.6,96.1 144.2,398.7 144.4,398.7 143.9,401.3 
	143.4,406.5 143.2,411.6 143.2,416.5 "/>
<path class="st4" d="M147.2,396.2c-10.7,58,33.8,82.6,63,83.4c23.9,0,51.7,0,75.7,0c-24.7-9.3-61.7-35.7-53.1-83.4h0l63.7-299.4
	C306.2,43.7,268.4,18,243,14c-23.9,0-68.6,0-92.5,0c58.4,4.7,65.5,56.1,60.3,82.9h0L147.2,396.2L147.2,396.2L147.2,396.2
	L147.2,396.2z"/>
<path class="st0" d="M391.5,76.6l-0.4-4.7l-0.6-4.5l-0.9-4.3l-1.1-4.2l-1.4-4l-1.6-3.8l-1.8-3.6l-2-3.4l-2.1-3.2l-2.3-3.1L375,35
	l-2.6-2.7l-2.7-2.5l-2.8-2.4l-2.9-2.2l-3-2l-3-1.8l-3.1-1.7l-3.1-1.5l-3.2-1.4l-3.2-1.2l-3.2-1l-3.2-0.9L336,13l-3.1-0.6l-3-0.4
	l-3-0.3l-2.9-0.1H221.7l23.6,5.5l2.9,0.8l2.9,0.9l2.8,1l2.8,1.1l2.7,1.3l2.7,1.4l2.6,1.5l2.6,1.6l2.5,1.7l2.4,1.8l2.3,2l2.3,2.1
	l2.2,2.2l2.1,2.3l1.9,2.4l1.8,2.5l1.7,2.7l1.6,2.8l1.4,2.9l1.3,3l1.2,3.1l1,3.3l0.9,3.4l0.7,3.5l0.5,3.6l0.3,3.8l0.1,3.9l-0.1,4
	l-0.3,4.1l-0.5,4.3l-0.7,4.3l-63.6,299c-0.2,0.3-0.1,0.2-0.1,0.7l-0.7,4.3l-0.5,4.4l-0.3,4.3v4.2l0.2,4l0.5,3.9l0.7,3.8l0.9,3.7
	l1.1,3.6l1.3,3.4l1.4,3.3l1.6,3.2l1.8,3.1l1.9,2.9l2,2.8l2.1,2.7l2.2,2.6l2.3,2.5l2.4,2.4l2.5,2.2l2.5,2.1l2.6,2l2.6,1.9l5.2,3.5
	l5.2,3.1l5.1,2.7l4.9,2.3l2.8,1.2c34,0,68-0.1,101.9-0.1l4.7,0v0l5-0.1l6.2-0.5l6.1-0.9l5.9-1.2l1.2-0.3l-31.6-2.2l-4.8-0.6
	l-4.6-0.8l-4.3-1l-4.1-1.2l-3.9-1.4l-3.7-1.6l-3.4-1.8l-3.2-1.9l-3-2.1l-2.8-2.3l-2.6-2.4l-2.4-2.5l-2.3-2.6l-2.1-2.7l-1.9-2.9
	l-1.7-2.9l-1.5-3l-1.4-3.1l-1.2-3.2l-1-3.2l-0.9-3.3l-0.7-3.3l-0.6-3.4l-0.4-3.4l-0.3-3.4l-0.1-3.4l0-3.4l0.1-3.4l0.3-3.3l0.4-3.3
	l0.5-3.3l63.7-299.3l0.8-5.5l0.5-5.3l0.2-5.1L391.5,76.6L391.5,76.6z"/>
<path class="st0" d="M324,396.2L324,396.2l63.7-299.3C398,39.1,353.3,14.5,323.9,14c-25.3,0-55.7,0-81,0c32,6.7,62.2,34.2,53.6,82.9
	h0l-63.7,299.3c0,0,0,0,0,0.1h0c-9.6,47.6,28.1,73.5,52.4,83.5c25.3,0,78.6-0.1,103.9-0.1C332.6,477.1,317.6,431.4,324,396.2
	L324,396.2z"/>
</svg>
